<svg width="500" height="500" viewBox="0 0 500 500" fill="none" xmlns="http://www.w3.org/2000/svg">
<rect width="500" height="500" rx="30" fill="#0F172A"/>
<g clip-path="url(#clip0_731_941)">
<path d="M54.5377 340V174.76H106.558V340H54.5377ZM160.278 340V243.44C160.278 235.053 157.671 228.593 152.458 224.06C147.471 219.3 141.238 216.92 133.758 216.92C128.544 216.92 123.898 218.053 119.818 220.32C115.738 222.36 112.451 225.307 109.958 229.16C107.691 233.013 106.558 237.773 106.558 243.44L86.4977 234.6C86.4977 221.453 89.3311 210.233 94.9977 200.94C100.664 191.42 108.371 184.167 118.118 179.18C127.864 173.967 138.858 171.36 151.098 171.36C162.658 171.36 172.971 173.967 182.038 179.18C191.331 184.393 198.698 191.647 204.138 200.94C209.578 210.233 212.298 221.34 212.298 234.26V340H160.278ZM266.018 340V243.44C266.018 235.053 263.411 228.593 258.198 224.06C253.211 219.3 246.978 216.92 239.498 216.92C234.284 216.92 229.638 218.053 225.558 220.32C221.478 222.36 218.191 225.307 215.698 229.16C213.431 233.013 212.298 237.773 212.298 243.44L182.378 239.36C182.831 225.307 186.118 213.293 192.238 203.32C198.584 193.12 206.858 185.3 217.058 179.86C227.484 174.193 239.158 171.36 252.078 171.36C264.771 171.36 275.991 174.08 285.738 179.52C295.711 184.733 303.531 192.327 309.198 202.3C315.091 212.047 318.038 223.833 318.038 237.66V340H266.018ZM372.841 340V106.42H424.861V340H372.841ZM335.441 218.96V174.76H462.261V218.96H335.441Z" fill="white"/>
</g>
<defs>
<clipPath id="clip0_731_941">
<rect x="3" width="497" height="500" rx="30" fill="white"/>
</clipPath>
</defs>
</svg>
