<svg width="235" height="50" viewBox="0 0 235 50" fill="none" xmlns="http://www.w3.org/2000/svg">
<g clip-path="url(#clip0_719_944)">
<path d="M1.836 34V17.476H7.038V34H1.836ZM12.41 34V24.344C12.41 23.5053 12.1493 22.8593 11.628 22.406C11.1293 21.93 10.506 21.692 9.758 21.692C9.23667 21.692 8.772 21.8053 8.364 22.032C7.956 22.236 7.62733 22.5307 7.378 22.916C7.15133 23.3013 7.038 23.7773 7.038 24.344L5.032 23.46C5.032 22.1453 5.31533 21.0233 5.882 20.094C6.44867 19.142 7.21933 18.4167 8.194 17.918C9.16867 17.3967 10.268 17.136 11.492 17.136C12.648 17.136 13.6793 17.3967 14.586 17.918C15.5153 18.4393 16.252 19.1647 16.796 20.094C17.34 21.0233 17.612 22.134 17.612 23.426V34H12.41ZM22.984 34V24.344C22.984 23.5053 22.7233 22.8593 22.202 22.406C21.7033 21.93 21.08 21.692 20.332 21.692C19.8107 21.692 19.346 21.8053 18.938 22.032C18.53 22.236 18.2013 22.5307 17.952 22.916C17.7253 23.3013 17.612 23.7773 17.612 24.344L14.62 23.936C14.6653 22.5307 14.994 21.3293 15.606 20.332C16.2407 19.312 17.068 18.53 18.088 17.986C19.1307 17.4193 20.298 17.136 21.59 17.136C22.8593 17.136 23.9813 17.408 24.956 17.952C25.9533 18.4733 26.7353 19.2327 27.302 20.23C27.8913 21.2047 28.186 22.3833 28.186 23.766V34H22.984ZM38.4216 34.34C36.9029 34.34 35.5429 33.966 34.3416 33.218C33.1629 32.47 32.2223 31.45 31.5196 30.158C30.8396 28.866 30.4996 27.3927 30.4996 25.738C30.4996 24.0833 30.8396 22.61 31.5196 21.318C32.2223 20.026 33.1629 19.006 34.3416 18.258C35.5429 17.51 36.9029 17.136 38.4216 17.136C39.5323 17.136 40.5296 17.3513 41.4136 17.782C42.3203 18.2127 43.0569 18.8133 43.6236 19.584C44.1903 20.332 44.5076 21.1933 44.5756 22.168V29.308C44.5076 30.2827 44.1903 31.1553 43.6236 31.926C43.0796 32.674 42.3543 33.2633 41.4476 33.694C40.5409 34.1247 39.5323 34.34 38.4216 34.34ZM39.4756 29.648C40.5863 29.648 41.4816 29.2853 42.1616 28.56C42.8416 27.812 43.1816 26.8713 43.1816 25.738C43.1816 24.9673 43.0229 24.2873 42.7056 23.698C42.4109 23.1087 41.9803 22.6553 41.4136 22.338C40.8696 21.998 40.2349 21.828 39.5096 21.828C38.7843 21.828 38.1383 21.998 37.5716 22.338C37.0276 22.6553 36.5856 23.1087 36.2456 23.698C35.9283 24.2873 35.7696 24.9673 35.7696 25.738C35.7696 26.486 35.9283 27.1547 36.2456 27.744C36.5629 28.3333 37.0049 28.798 37.5716 29.138C38.1383 29.478 38.7729 29.648 39.4756 29.648ZM42.9776 34V29.546L43.7596 25.534L42.9776 21.522V17.476H48.0776V34H42.9776ZM61.9743 34L57.9963 27.574L56.8743 26.86L50.3803 17.476H56.4663L60.1723 23.494L61.2603 24.174L67.9923 34H61.9743ZM50.0743 34L56.8403 24.378L59.7983 27.71L55.7523 34H50.0743ZM61.2263 26.826L58.2683 23.494L62.0083 17.476H67.6523L61.2263 26.826ZM71.8832 34V10.642H77.0852V34H71.8832ZM68.1432 21.896V17.476H80.8252V21.896H68.1432ZM90.4613 34.374C88.9426 34.374 87.5939 34.068 86.4153 33.456C85.2593 32.8213 84.3526 31.96 83.6953 30.872C83.0379 29.7613 82.7093 28.492 82.7093 27.064V17.476H87.9113V26.996C87.9113 27.5627 88.0019 28.05 88.1833 28.458C88.3873 28.866 88.6819 29.1833 89.0673 29.41C89.4526 29.6367 89.9173 29.75 90.4613 29.75C91.2319 29.75 91.8439 29.512 92.2973 29.036C92.7506 28.5373 92.9773 27.8573 92.9773 26.996V17.476H98.1793V27.03C98.1793 28.4807 97.8506 29.7613 97.1933 30.872C96.5359 31.96 95.6293 32.8213 94.4733 33.456C93.3173 34.068 91.9799 34.374 90.4613 34.374ZM101.445 34V9.316H106.647V34H101.445ZM117.655 34.374C116.136 34.374 114.787 34.068 113.609 33.456C112.453 32.8213 111.546 31.96 110.889 30.872C110.231 29.7613 109.903 28.492 109.903 27.064V17.476H115.105V26.996C115.105 27.5627 115.195 28.05 115.377 28.458C115.581 28.866 115.875 29.1833 116.261 29.41C116.646 29.6367 117.111 29.75 117.655 29.75C118.425 29.75 119.037 29.512 119.491 29.036C119.944 28.5373 120.171 27.8573 120.171 26.996V17.476H125.373V27.03C125.373 28.4807 125.044 29.7613 124.387 30.872C123.729 31.96 122.823 32.8213 121.667 33.456C120.511 34.068 119.173 34.374 117.655 34.374ZM138.159 34.34C137.048 34.34 136.028 34.1247 135.099 33.694C134.169 33.2633 133.41 32.674 132.821 31.926C132.231 31.1553 131.891 30.2827 131.801 29.308V22.338C131.891 21.3633 132.231 20.4793 132.821 19.686C133.41 18.8927 134.169 18.2693 135.099 17.816C136.028 17.3627 137.048 17.136 138.159 17.136C139.723 17.136 141.105 17.51 142.307 18.258C143.531 19.006 144.483 20.026 145.163 21.318C145.865 22.61 146.217 24.0833 146.217 25.738C146.217 27.3927 145.865 28.866 145.163 30.158C144.483 31.45 143.531 32.47 142.307 33.218C141.105 33.966 139.723 34.34 138.159 34.34ZM137.207 29.648C137.955 29.648 138.601 29.478 139.145 29.138C139.711 28.798 140.153 28.3333 140.471 27.744C140.788 27.1547 140.947 26.486 140.947 25.738C140.947 24.9673 140.788 24.2873 140.471 23.698C140.153 23.1087 139.711 22.6553 139.145 22.338C138.601 21.998 137.966 21.828 137.241 21.828C136.515 21.828 135.869 21.998 135.303 22.338C134.759 22.6553 134.328 23.1087 134.011 23.698C133.693 24.2873 133.535 24.9673 133.535 25.738C133.535 26.486 133.682 27.1547 133.977 27.744C134.294 28.3333 134.736 28.798 135.303 29.138C135.869 29.478 136.504 29.648 137.207 29.648ZM128.639 40.97V17.476H133.841V21.726L132.991 25.738L133.773 29.75V40.97H128.639ZM156.815 34.374C155.115 34.374 153.574 34 152.191 33.252C150.831 32.4813 149.755 31.4387 148.961 30.124C148.168 28.8093 147.771 27.336 147.771 25.704C147.771 24.072 148.168 22.61 148.961 21.318C149.755 20.026 150.831 19.006 152.191 18.258C153.551 17.4873 155.093 17.102 156.815 17.102C158.538 17.102 160.079 17.476 161.439 18.224C162.799 18.972 163.876 20.0033 164.669 21.318C165.463 22.61 165.859 24.072 165.859 25.704C165.859 27.336 165.463 28.8093 164.669 30.124C163.876 31.4387 162.799 32.4813 161.439 33.252C160.079 34 158.538 34.374 156.815 34.374ZM156.815 29.648C157.563 29.648 158.221 29.4893 158.787 29.172C159.354 28.832 159.785 28.3673 160.079 27.778C160.397 27.166 160.555 26.4747 160.555 25.704C160.555 24.9333 160.397 24.2647 160.079 23.698C159.762 23.1087 159.32 22.6553 158.753 22.338C158.209 21.998 157.563 21.828 156.815 21.828C156.09 21.828 155.444 21.998 154.877 22.338C154.311 22.6553 153.869 23.1087 153.551 23.698C153.234 24.2873 153.075 24.9673 153.075 25.738C153.075 26.486 153.234 27.166 153.551 27.778C153.869 28.3673 154.311 28.832 154.877 29.172C155.444 29.4893 156.09 29.648 156.815 29.648ZM173.186 34L166.182 17.476H171.792L176.552 31.246H174.104L178.864 17.476H184.372L177.368 33.966L173.186 34ZM187.95 34.374C187.066 34.374 186.329 34.068 185.74 33.456C185.15 32.844 184.856 32.1073 184.856 31.246C184.856 30.3393 185.15 29.5913 185.74 29.002C186.329 28.39 187.066 28.084 187.95 28.084C188.856 28.084 189.593 28.39 190.16 29.002C190.749 29.5913 191.044 30.3393 191.044 31.246C191.044 32.1073 190.749 32.844 190.16 33.456C189.593 34.068 188.856 34.374 187.95 34.374ZM194.879 34V17.476H200.081V34H194.879ZM200.081 24.922L197.905 23.222C198.336 21.2953 199.061 19.7993 200.081 18.734C201.101 17.6687 202.518 17.136 204.331 17.136C205.124 17.136 205.816 17.2607 206.405 17.51C207.017 17.7367 207.55 18.0993 208.003 18.598L204.909 22.508C204.682 22.2587 204.399 22.066 204.059 21.93C203.719 21.794 203.334 21.726 202.903 21.726C202.042 21.726 201.35 21.998 200.829 22.542C200.33 23.0633 200.081 23.8567 200.081 24.922ZM216.733 34.374C215.214 34.374 213.865 34.068 212.687 33.456C211.531 32.8213 210.624 31.96 209.967 30.872C209.309 29.7613 208.981 28.492 208.981 27.064V17.476H214.183V26.996C214.183 27.5627 214.273 28.05 214.455 28.458C214.659 28.866 214.953 29.1833 215.339 29.41C215.724 29.6367 216.189 29.75 216.733 29.75C217.503 29.75 218.115 29.512 218.569 29.036C219.022 28.5373 219.249 27.8573 219.249 26.996V17.476H224.451V27.03C224.451 28.4807 224.122 29.7613 223.465 30.872C222.807 31.96 221.901 32.8213 220.745 33.456C219.589 34.068 218.251 34.374 216.733 34.374Z" fill="white"/>
</g>
<defs>
<clipPath id="clip0_719_944">
<rect width="235" height="50" fill="white"/>
</clipPath>
</defs>
</svg>
